# xmcd
#
# Track frame offsets: 
#        183
#        11058
#        23433
#        34683
#        46233
#        55983
#        68188
#        79833
#        98358
#        109233
#        121908
#        134133
#        149208
#        162858
#        178683
#        189558
#        203283
#        213783
#
# Disc length: 3006 seconds
#
# Revision: 4
# Processed by: cddbd v1.5.2PL0 Copyright (c) Steve Scherf et al.
# Submitted via: ExactAudioCopyFreeDBPlugin 1.0
#
DISCID=f50bbc12
DTITLE=Various Artist - The Best of Country and Western Vol. 2
DYEAR=2000
DGENRE=Country
TTITLE0=Bobby Bare - Just In Case A Night Like This
TTITLE1=Merle Travis - Gambler's Guitar
TTITLE2=The Nashville Gamblers - Who's Gonna Be Your Man
TTITLE3=George Jones - You Comb Her Hair
TTITLE4=Donna Fargo - Sticks And Stones
TTITLE5=Bobby Bare - Roses Are Red, My Love
TTITLE6=The Nashville Gamblers - That Tavern In Town
TTITLE7=Dave Dudley - He Doesn't Live There Anymore
TTITLE8=The Nashville Gamblers - Whoopee Ti Yi Yo
TTITLE9=Johnny Cash - Folsom Prison Blues
TTITLE10=Bobby Bare - Just The Side Of Nowhere
TTITLE11=Jim McLee - Rhinestone Cowboy
TTITLE12=Barbara Shelton - Coal Miner's Daughter
TTITLE13=Blue River Connection - Me And Bobby McGee
TTITLE14=Dolly Parton - Honky Tonk Angels
TTITLE15=Dave Dudley - I Was Country Before Barbara Mandrell
TTITLE16=The Nashville Gamblers - Goin' Up Cripple Creek
TTITLE17=Don Williams - Follow Me Back To Louisville
EXTD=
EXTT0=
EXTT1=
EXTT2=
EXTT3=
EXTT4=
EXTT5=
EXTT6=
EXTT7=
EXTT8=
EXTT9=
EXTT10=
EXTT11=
EXTT12=
EXTT13=
EXTT14=
EXTT15=
EXTT16=
EXTT17=
PLAYORDER=
